PathFileType	4	(X/Y/Z)	Kaydara	
DataRate	CameraRate	NumFrames	NumMarkers	Units	OrigDataRate	OrigDataStartFrame	OrigNumFrames	
120.00	120.00	7	29	mm	120.00	712	2847	
Frame#	Time	Pelvis			Left_hip			Left_knee			Left_ankle			Left_foot			Left_foot_End			Right_hip			Right_knee			Right_ankle			Right_foot			Right_foot_End			Spine1			Spine2			Spine3			Neck			Head			Head_End			Left_collar			Left_shoulder			Left_elbow			Left_wrist			Left_palm			Left_palm_End			Right_collar			Right_shoulder			Right_elbow			Right_wrist			Right_palm			Right_palm_End			
		X1	Y1	Z1	X2	Y2	Z2	X3	Y3	Z3	X4	Y4	Z4	X5	Y5	Z5	X6	Y6	Z6	X7	Y7	Z7	X8	Y8	Z8	X9	Y9	Z9	X10	Y10	Z10	X11	Y11	Z11	X12	Y12	Z12	X13	Y13	Z13	X14	Y14	Z14	X15	Y15	Z15	X16	Y16	Z16	X17	Y17	Z17	X18	Y18	Z18	X19	Y19	Z19	X20	Y20	Z20	X21	Y21	Z21	X22	Y22	Z22	X23	Y23	Z23	X24	Y24	Z24	X25	Y25	Z25	X26	Y26	Z26	X27	Y27	Z27	X28	Y28	Z28	X29	Y29	Z29	

712	5.925	629.79000	875.29999	-869.48997	542.96371	827.03601	-844.08165	595.17150	535.98765	-1096.81888	641.91161	244.96549	-785.43086	600.78972	144.35875	-877.08989	600.78972	144.35875	-877.08989	649.62221	778.12780	-822.82557	842.50647	501.67432	-1011.18749	868.54090	111.06558	-853.88748	938.01950	32.90576	-959.33301	938.01950	32.90576	-959.33301	673.18043	987.31192	-902.18964	721.65296	1111.86179	-936.82861	745.75277	1158.64351	-956.41381	840.38784	1339.23121	-1016.26997	870.81331	1396.21776	-1096.14551	870.81331	1396.21776	-1096.14551	723.56218	1286.81667	-996.08253	616.11388	1360.77962	-1018.44697	462.53792	1169.16371	-1093.70406	364.99059	1086.34353	-1327.03266	349.91829	1040.96988	-1401.76959	349.91829	1040.96988	-1401.76959	864.25190	1236.43190	-955.93554	985.50765	1229.62547	-937.54252	892.32848	985.28253	-915.99196	718.62870	1007.55714	-1120.52515	685.22587	1022.29657	-1202.50821	685.22587	1022.29657	-1202.50821 
713	5.933	625.23998	870.19997	-867.21001	537.74252	823.51037	-841.17014	594.97398	536.45268	-1097.36021	642.31867	245.83633	-785.68467	601.21004	145.29186	-877.41794	601.21004	145.29186	-877.41794	643.70137	773.39217	-819.24393	841.39656	502.09829	-1010.10335	868.62801	111.37180	-853.29925	938.13503	33.23130	-958.74039	938.13503	33.23130	-958.74039	670.20476	981.14029	-901.40190	720.22859	1104.65634	-937.50615	744.75705	1151.04102	-957.49928	840.47028	1330.71212	-1018.39056	871.18124	1387.08270	-1098.59326	871.18124	1387.08270	-1098.59326	723.33652	1279.14459	-997.81090	616.42627	1353.75760	-1020.59070	461.90258	1162.54097	-1094.91761	363.88780	1079.20311	-1327.86568	348.57341	1033.60877	-1402.41885	348.57341	1033.60877	-1402.41885	863.74685	1228.07823	-957.54714	984.97992	1220.51881	-939.29925	891.29452	976.42816	-917.09427	716.79287	998.29193	-1120.98823	683.09168	1012.91120	-1202.87064	683.09168	1012.91120	-1202.87064 
714	5.942	620.00000	865.55000	-864.67003	532.26638	819.41972	-838.42869	594.67287	536.39543	-1097.87732	642.51748	246.13193	-785.94941	601.38734	145.67363	-877.76741	601.38734	145.67363	-877.76741	637.96872	768.85329	-816.29456	840.63245	502.88206	-1009.42093	868.98717	112.02024	-853.15412	938.43790	33.80518	-958.57707	938.43790	33.80518	-958.57707	665.52983	976.11271	-899.33405	716.20743	1099.19546	-936.00189	740.99520	1145.33554	-956.23970	837.80356	1324.05234	-1018.19875	868.78388	1379.79642	-1098.73505	868.78388	1379.79642	-1098.73505	720.36177	1273.36480	-997.19283	614.03177	1348.66394	-1020.42632	458.62597	1157.77448	-1093.74828	360.27995	1073.88185	-1326.35737	344.75688	1028.04951	-1400.72120	344.75688	1028.04951	-1400.72120	860.48853	1221.58697	-956.84995	981.67049	1213.29306	-938.58162	887.45613	969.47191	-915.66528	712.45942	990.32013	-1119.24106	678.79244	1004.81962	-1201.15884	678.79244	1004.81962	-1201.15884 
715	5.950	614.91001	860.80002	-862.32002	526.90665	815.33851	-835.81608	594.70584	536.52633	-1098.45262	643.21194	246.62347	-786.29157	601.97061	146.26425	-878.16803	601.97061	146.26425	-878.16803	632.30672	764.23589	-813.47291	840.20920	503.90142	-1008.69995	869.80924	112.86730	-853.09652	939.12034	34.46449	-958.47188	939.12034	34.46449	-958.47188	661.10132	970.90872	-897.54940	712.51910	1093.49067	-934.85881	737.58047	1139.36962	-955.35171	835.47705	1317.13036	-1018.34260	866.71746	1372.26005	-1099.20070	866.71746	1372.26005	-1099.20070	717.73354	1267.32525	-996.91908	611.97605	1343.27978	-1020.62741	455.71611	1152.70331	-1092.94132	357.14893	1068.13771	-1325.21287	341.45218	1022.02269	-1399.36519	341.45218	1022.02269	-1399.36519	857.57305	1214.82652	-956.51117	978.69210	1205.80624	-938.17005	883.90120	962.26824	-914.62887	707.81243	982.85263	-1117.28775	673.95052	997.08644	-1199.17177	673.95052	997.08644	-1199.17177 
716	5.958	610.35999	856.33003	-860.14999	522.07412	811.54485	-833.43498	595.15412	536.65805	-1098.77904	644.12100	247.12468	-786.34713	602.81474	146.85272	-878.28967	602.81474	146.85272	-878.28967	627.15355	759.90195	-810.82538	837.69252	502.43202	-1007.02337	868.14558	111.23180	-852.00316	937.12755	32.47616	-957.33138	937.12755	32.47616	-957.33138	657.23551	965.97602	-895.91470	709.41559	1088.04517	-933.84195	734.76122	1133.65520	-954.58404	833.76834	1310.42815	-1018.61049	865.32019	1364.90495	-1099.78954	865.32019	1364.90495	-1099.78954	715.71782	1261.50510	-996.84678	610.51468	1338.06650	-1021.06407	453.45028	1147.78389	-1092.40242	354.78746	1062.34579	-1324.31378	338.91076	1015.87294	-1398.20393	338.91076	1015.87294	-1398.20393	855.23866	1208.32645	-956.22698	976.28852	1198.59092	-937.79501	881.21759	955.18562	-914.01186	704.53520	974.56755	-1116.27226	670.27618	988.34704	-1198.06877	670.27618	988.34704	-1198.06877 
717	5.967	606.32000	852.39998	-858.13004	517.75891	808.27463	-831.22862	595.75278	536.94034	-1098.82078	645.10687	247.73619	-786.14497	603.74142	147.56513	-878.17085	603.74142	147.56513	-878.17085	622.51891	756.10202	-808.35440	832.54237	498.06181	-1004.35562	863.40564	106.70970	-849.80059	932.04740	27.60000	-955.08573	932.04740	27.60000	-955.08573	653.86617	961.59295	-894.39199	706.79658	1083.15548	-932.90219	732.42629	1128.49678	-953.88299	832.54352	1304.27249	-1018.92079	864.44198	1358.07814	-1100.41140	864.44198	1358.07814	-1100.41140	714.18726	1256.21676	-996.88689	609.58642	1333.46448	-1021.52985	451.71156	1143.54723	-1092.04814	352.93636	1056.74694	-1323.40515	336.97085	1009.80935	-1396.98174	336.97085	1009.80935	-1396.98174	853.36933	1202.40102	-955.94520	974.34461	1191.92869	-937.42769	879.38226	948.47539	-913.70220	702.33709	966.05792	-1115.80975	667.22775	979.29563	-1197.33471	667.22775	979.29563	-1197.33471 
718	5.975	602.14001	848.41003	-856.19003	513.26163	805.04087	-829.10595	595.90983	537.35025	-1098.96131	645.79128	248.45904	-786.07996	604.31055	148.38934	-878.16420	604.31055	148.38934	-878.16420	617.64562	752.26080	-805.90866	830.48615	497.28561	-1002.87982	862.09270	105.66147	-849.16635	930.55212	26.37917	-954.44038	930.55212	26.37917	-954.44038	650.46112	957.08088	-892.99207	704.24407	1078.07213	-932.11528	730.18844	1123.12496	-953.32946	831.48644	1297.87201	-1019.30414	863.78782	1350.99446	-1101.08375	863.78782	1350.99446	-1101.08375	712.80634	1250.71049	-997.08084	608.47075	1328.27113	-1021.86504	449.84904	1138.73605	-1091.73254	350.79286	1050.71502	-1322.50748	334.69579	1003.39336	-1395.80888	334.69579	1003.39336	-1395.80888	851.60868	1196.23228	-955.72823	972.49867	1184.98080	-937.11100	877.14412	941.70459	-913.14309	699.62293	957.70142	-1114.96461	663.96308	970.29368	-1196.35277	663.96308	970.29368	-1196.35277 
